<svg xmlns="http://www.w3.org/2000/svg" xmlns:xlink="http://www.w3.org/1999/xlink" width="512" zoomAndPan="magnify" viewBox="0 0 384 383.999986" height="512" preserveAspectRatio="xMidYMid meet" version="1.0"><defs><clipPath id="663aeaa7d9"><path d="M 38 3.101562 L 346 3.101562 L 346 381.101562 L 38 381.101562 Z M 38 3.101562 " clip-rule="nonzero"/></clipPath></defs><g clip-path="url(#663aeaa7d9)"><path fill="#ffffff" d="M 165.667969 224.753906 L 251.046875 139.203125 C 251.488281 138.777344 251.96875 138.398438 252.480469 138.066406 C 252.996094 137.734375 253.539062 137.449219 254.105469 137.222656 C 254.675781 136.992188 255.261719 136.816406 255.863281 136.699219 C 256.464844 136.582031 257.070312 136.519531 257.683594 136.519531 C 258.296875 136.519531 258.90625 136.574219 259.507812 136.6875 C 260.113281 136.800781 260.699219 136.972656 261.265625 137.199219 C 261.835938 137.425781 262.382812 137.703125 262.898438 138.035156 C 263.414062 138.363281 263.894531 138.742188 264.339844 139.164062 C 264.777344 139.601562 265.167969 140.074219 265.511719 140.589844 C 265.855469 141.101562 266.144531 141.644531 266.382812 142.214844 C 266.621094 142.785156 266.800781 143.371094 266.921875 143.976562 C 267.042969 144.582031 267.105469 145.195312 267.105469 145.8125 C 267.109375 146.429688 267.050781 147.042969 266.933594 147.648438 C 266.8125 148.253906 266.636719 148.84375 266.40625 149.417969 C 266.171875 149.988281 265.882812 150.53125 265.542969 151.046875 C 265.203125 151.5625 264.816406 152.039062 264.378906 152.476562 L 171.242188 245.804688 C 170.367188 246.695312 169.351562 247.378906 168.199219 247.859375 C 167.046875 248.339844 165.847656 248.578125 164.597656 248.578125 L 164.570312 248.578125 C 163.328125 248.582031 162.132812 248.347656 160.988281 247.875 C 159.839844 247.398438 158.828125 246.722656 157.949219 245.847656 C 157.566406 245.464844 157.222656 245.054688 156.914062 244.613281 L 118.554688 198.980469 C 118.1875 198.480469 117.875 197.945312 117.613281 197.382812 C 117.351562 196.820312 117.148438 196.234375 117 195.632812 C 116.855469 195.027344 116.769531 194.414062 116.742188 193.792969 C 116.71875 193.175781 116.753906 192.554688 116.851562 191.941406 C 116.945312 191.328125 117.101562 190.730469 117.320312 190.148438 C 117.535156 189.566406 117.804688 189.007812 118.128906 188.480469 C 118.453125 187.949219 118.828125 187.457031 119.25 187.003906 C 119.671875 186.546875 120.136719 186.136719 120.640625 185.773438 C 121.144531 185.410156 121.679688 185.101562 122.242188 184.84375 C 122.808594 184.585938 123.394531 184.386719 123.996094 184.246094 C 124.601562 184.101562 125.214844 184.023438 125.835938 184.003906 C 126.453125 183.980469 127.070312 184.023438 127.683594 184.125 C 128.296875 184.226562 128.894531 184.386719 129.472656 184.609375 C 130.054688 184.828125 130.605469 185.101562 131.132812 185.433594 C 131.660156 185.761719 132.148438 186.140625 132.597656 186.570312 C 133.050781 186.996094 133.457031 187.460938 133.8125 187.96875 Z M 345.59375 217.699219 C 345.820312 245.738281 329.546875 278.8125 299.761719 310.835938 C 286.929688 324.597656 272.875 336.972656 257.597656 347.949219 L 256.9375 348.378906 C 256.667969 348.53125 256.414062 348.707031 256.179688 348.910156 L 255.558594 349.40625 C 237.355469 362.554688 217.667969 372.863281 196.496094 380.324219 L 193.816406 381.214844 L 191.121094 380.367188 C 184.671875 378.308594 178.355469 375.917969 172.160156 373.1875 C 171.777344 372.992188 171.382812 372.816406 170.980469 372.664062 L 170.453125 372.445312 C 154.769531 365.144531 139.894531 356.464844 125.816406 346.402344 C 111.742188 336.34375 98.707031 325.078125 86.714844 312.605469 C 74.03125 299.667969 63.1875 285.339844 54.183594 269.613281 L 53.851562 268.957031 C 53.710938 268.660156 53.546875 268.382812 53.355469 268.117188 L 52.992188 267.507812 C 48.839844 260.300781 45.609375 252.703125 43.300781 244.707031 C 40.992188 236.714844 39.671875 228.5625 39.34375 220.25 L 38.242188 85.386719 L 38.898438 85.027344 L 190.671875 3.101562 L 191.253906 3.40625 L 344.472656 82.890625 Z M 327.160156 93.527344 L 190.851562 22.847656 L 55.761719 95.757812 L 56.785156 220.109375 C 57.109375 226.945312 58.234375 233.648438 60.164062 240.214844 C 62.09375 246.785156 64.773438 253.027344 68.199219 258.953125 C 68.71875 259.75 69.179688 260.582031 69.585938 261.445312 C 77.828125 275.722656 87.722656 288.746094 99.269531 300.511719 C 110.449219 312.148438 122.601562 322.664062 135.71875 332.058594 C 148.839844 341.453125 162.703125 349.566406 177.316406 356.402344 C 178.097656 356.691406 178.859375 357.023438 179.601562 357.402344 C 184.253906 359.394531 189.132812 361.296875 193.65625 362.820312 C 212.058594 355.976562 229.234375 346.816406 245.175781 335.347656 C 245.988281 334.675781 246.847656 334.070312 247.746094 333.523438 C 261.957031 323.277344 275.039062 311.746094 286.992188 298.929688 C 313.726562 270.1875 328.335938 241.382812 328.148438 217.824219 Z M 327.160156 93.527344 " fill-opacity="1" fill-rule="nonzero"/></g></svg>